<?xml version="1.0" encoding="utf-8"?>
<!-- Generator: Adobe Illustrator 27.5.0, SVG Export Plug-In . SVG Version: 6.00 Build 0)  -->
<svg version="1.1" xmlns="http://www.w3.org/2000/svg" xmlns:xlink="http://www.w3.org/1999/xlink" x="0px" y="0px"
	 viewBox="0 0 500 500" style="enable-background:new 0 0 500 500;" xml:space="preserve">
<g id="BACKGROUND">
	<radialGradient id="SVGID_1_" cx="250" cy="250" r="250" gradientUnits="userSpaceOnUse">
		<stop  offset="0" style="stop-color:#CDDBEE"/>
		<stop  offset="1" style="stop-color:#B1C5E5"/>
	</radialGradient>
	<rect style="opacity:0.1;fill:url(#SVGID_1_);" width="500" height="500"/>
</g>
<g id="OBJECTS">
	<g>
		<g>
			<g style="opacity:0.3;">
				<path style="fill:#E07586;" d="M173.118,110.764c0.031,0.051,0.049,0.107,0.09,0.153c0.017,0.019,0.034,0.036,0.051,0.053
					c0.366,0.35,0.946,0.364,1.328,0.019c2.383-2.145,4.875-4.222,7.407-6.174c0.427-0.329,0.507-0.942,0.178-1.37
					c-0.131-0.171-0.313-0.27-0.505-0.326c-0.014-0.022-0.018-0.048-0.034-0.07c-0.328-0.428-0.94-0.508-1.37-0.182
					c-2.587,1.981-5.124,4.082-7.543,6.244c-0.402,0.36-0.436,0.977-0.076,1.379C172.775,110.637,172.943,110.716,173.118,110.764z"
					/>
				<path style="fill:#E07586;" d="M188.523,98.97c0.037,0.052,0.076,0.102,0.121,0.145c0.321,0.307,0.822,0.365,1.21,0.111
					c2.676-1.752,5.457-3.423,8.266-4.967c0.473-0.26,0.645-0.854,0.385-1.327c-0.135-0.245-0.363-0.405-0.616-0.469
					c-0.289-0.369-0.798-0.499-1.223-0.268c-2.857,1.563-5.683,3.252-8.403,5.022c-0.452,0.294-0.58,0.899-0.285,1.351
					C188.109,98.773,188.306,98.907,188.523,98.97z"/>
				<path style="fill:#E07586;" d="M205.614,89.67c0.022,0.027,0.036,0.062,0.061,0.086c0.279,0.267,0.705,0.354,1.078,0.184
					c2.923-1.323,5.93-2.549,8.94-3.639c0.507-0.184,0.769-0.744,0.585-1.251c-0.119-0.327-0.398-0.534-0.713-0.604
					c-0.256-0.298-0.674-0.427-1.068-0.286c-3.054,1.102-6.106,2.338-9.07,3.674c-0.491,0.222-0.71,0.8-0.489,1.292
					C205.069,89.416,205.326,89.605,205.614,89.67z"/>
				<path style="fill:#E07586;" d="M223.913,83.081c0.012,0.013,0.02,0.029,0.033,0.041c0.24,0.23,0.593,0.332,0.937,0.236
					c3.085-0.858,6.245-1.608,9.389-2.228c0.529-0.105,0.873-0.619,0.769-1.147c-0.084-0.421-0.429-0.714-0.832-0.768
					c-0.222-0.209-0.526-0.326-0.845-0.262c-3.195,0.621-6.402,1.375-9.534,2.239c-0.521,0.143-0.826,0.681-0.682,1.201
					C223.251,82.765,223.558,83.014,223.913,83.081z"/>
				<path style="fill:#E07586;" d="M159.915,124.829c0.282,0,0.562-0.121,0.754-0.356c2.037-2.473,4.195-4.898,6.413-7.208
					c0.373-0.389,0.361-1.007-0.029-1.381c-0.388-0.374-1.008-0.361-1.381,0.028c-2.252,2.345-4.442,4.808-6.51,7.319
					c-0.343,0.416-0.284,1.032,0.133,1.375C159.477,124.757,159.696,124.829,159.915,124.829z"/>
				<path style="fill:#E07586;" d="M281.68,80.787c0.108,0.021,0.216,0.048,0.324,0.068c0.069,0.031,0.139,0.06,0.217,0.075
					c1.542,0.291,3.089,0.615,4.631,0.966c1.417,0.333,2.829,0.683,4.223,1.062c0.046,0.012,0.091,0.013,0.136,0.018
					c0.135,0.036,0.272,0.065,0.406,0.101c0.521,0.141,1.057-0.168,1.197-0.689c0.14-0.52-0.168-1.055-0.689-1.196
					c-1.6-0.43-3.216-0.83-4.839-1.2c-1.742-0.41-3.492-0.79-5.241-1.124c-0.531-0.099-1.041,0.246-1.143,0.776
					C280.802,80.174,281.15,80.686,281.68,80.787z"/>
				<path style="fill:#E07586;" d="M134.071,176.665c0.049,0.011,0.098,0.013,0.147,0.017c0.047,0.081,0.101,0.157,0.169,0.222
					c0.123,0.118,0.278,0.205,0.457,0.246c0.526,0.121,1.049-0.208,1.17-0.734c0.716-3.126,1.561-6.257,2.512-9.304
					c0.16-0.515-0.124-1.062-0.642-1.223c-0.061-0.019-0.121-0.012-0.182-0.019c-0.117-0.213-0.31-0.384-0.56-0.463
					c-0.511-0.161-1.063,0.124-1.225,0.638c-0.977,3.105-1.844,6.284-2.578,9.449C133.219,176.019,133.546,176.544,134.071,176.665z
					"/>
				<path style="fill:#E07586;" d="M148.243,140.592c0.157,0.093,0.328,0.137,0.498,0.137c0.333,0,0.658-0.171,0.84-0.478
					c1.636-2.753,3.4-5.479,5.243-8.101c0.31-0.441,0.203-1.05-0.237-1.361c-0.442-0.309-1.05-0.203-1.361,0.237
					c-1.871,2.663-3.662,5.431-5.323,8.227C147.627,139.717,147.779,140.316,148.243,140.592z"/>
				<path style="fill:#E07586;" d="M131.361,195.891c0.045,0.076,0.083,0.157,0.146,0.218c0.158,0.151,0.368,0.251,0.604,0.268
					c0.537,0.039,1.005-0.365,1.044-0.904c0.232-3.196,0.591-6.421,1.065-9.584c0.079-0.534-0.288-1.031-0.821-1.111
					c-0.034-0.005-0.066,0.007-0.1,0.005c-0.143-0.251-0.381-0.443-0.688-0.49c-0.533-0.084-1.031,0.286-1.112,0.819
					c-0.488,3.21-0.858,6.483-1.1,9.731c-0.04,0.538,0.363,1.006,0.901,1.046C131.321,195.89,131.341,195.891,131.361,195.891z"/>
				<path style="fill:#E07586;" d="M139.762,158.083c0.119,0.048,0.243,0.071,0.364,0.071c0.386,0,0.753-0.232,0.906-0.613
					c1.197-2.977,2.523-5.941,3.943-8.81c0.239-0.483,0.041-1.069-0.443-1.309c-0.486-0.239-1.069-0.041-1.309,0.443
					c-1.442,2.914-2.789,5.924-4.004,8.947C139.019,157.313,139.262,157.882,139.762,158.083z"/>
				<path style="fill:#E07586;" d="M300.277,85.848c3.012,1.075,6.027,2.285,8.958,3.594c0.13,0.058,0.265,0.085,0.398,0.085
					c0.054,0,0.105-0.014,0.158-0.023c0.49,0.207,1.056-0.013,1.272-0.501c0.219-0.492-0.003-1.069-0.497-1.288
					c-2.968-1.315-6.028-2.532-9.093-3.616c-0.139-0.049-0.281-0.059-0.419-0.045c-0.04-0.014-0.08-0.031-0.12-0.046
					c-0.507-0.183-1.067,0.084-1.248,0.591C299.503,85.108,299.768,85.666,300.277,85.848z"/>
				<path style="fill:#E07586;" d="M366.901,140.382c0.169,0,0.34-0.045,0.496-0.137c0.222,0.038,0.457,0.006,0.665-0.119
					c0.462-0.278,0.612-0.878,0.333-1.34c-1.674-2.783-3.48-5.539-5.369-8.191c-0.289-0.401-0.816-0.505-1.241-0.283
					c-0.254-0.051-0.526-0.006-0.753,0.156c-0.441,0.311-0.546,0.921-0.234,1.361c1.851,2.616,3.622,5.334,5.264,8.078
					C366.245,140.213,366.569,140.382,366.901,140.382z"/>
				<path style="fill:#E07586;" d="M354.933,124.175c0.193,0.233,0.471,0.353,0.753,0.353c0.219,0,0.44-0.074,0.622-0.225
					c0.416-0.344,0.473-0.96,0.129-1.375c-2.072-2.5-4.269-4.955-6.532-7.298c-0.372-0.387-0.993-0.398-1.38-0.024
					c-0.388,0.375-0.399,0.993-0.024,1.381C350.728,119.295,352.893,121.713,354.933,124.175z"/>
				<path style="fill:#E07586;" d="M380.506,175.508c0.106,0.45,0.507,0.752,0.95,0.752c0.074,0,0.15-0.008,0.225-0.026
					c0.098-0.023,0.18-0.072,0.263-0.121c0.152,0.041,0.316,0.047,0.481,0.008c0.525-0.125,0.849-0.651,0.724-1.176
					c-0.754-3.166-1.639-6.342-2.632-9.439c-0.165-0.515-0.715-0.797-1.228-0.632c-0.074,0.024-0.132,0.071-0.196,0.109
					c-0.169-0.042-0.347-0.055-0.524,0.002c-0.514,0.164-0.797,0.713-0.634,1.227C378.906,169.26,379.771,172.387,380.506,175.508z"
					/>
				<path style="fill:#E07586;" d="M360.94,276.927c-1.842,2.614-3.811,5.194-5.854,7.67c-0.343,0.416-0.284,1.031,0.132,1.375
					c0.182,0.15,0.402,0.223,0.621,0.223c0.281,0,0.561-0.121,0.754-0.355c2.073-2.513,4.073-5.134,5.944-7.787
					c0.311-0.441,0.205-1.051-0.236-1.361C361.862,276.38,361.25,276.486,360.94,276.927z"/>
				<path style="fill:#E07586;" d="M375.561,157.754c0.123,0,0.247-0.023,0.367-0.072c0.042-0.017,0.07-0.05,0.109-0.072
					c0.192,0.046,0.399,0.039,0.596-0.041c0.5-0.204,0.739-0.774,0.536-1.273c-1.232-3.02-2.595-6.024-4.05-8.929
					c-0.239-0.482-0.829-0.677-1.31-0.435c-0.026,0.013-0.042,0.036-0.066,0.051c-0.202-0.038-0.415-0.029-0.614,0.069
					c-0.483,0.241-0.679,0.827-0.438,1.31c1.424,2.855,2.758,5.81,3.966,8.783C374.811,157.523,375.176,157.754,375.561,157.754z"/>
				<path style="fill:#E07586;" d="M317.889,93.716c2.815,1.527,5.607,3.184,8.298,4.924c0.164,0.106,0.348,0.156,0.529,0.156
					c0.1,0,0.197-0.02,0.292-0.05c0.402,0.113,0.844-0.029,1.081-0.398c0.292-0.454,0.159-1.062-0.294-1.35
					c-2.738-1.76-5.576-3.433-8.436-4.974c-0.229-0.123-0.483-0.141-0.716-0.079c-0.438-0.139-0.922,0.029-1.148,0.447
					C317.239,92.865,317.415,93.459,317.889,93.716z"/>
				<path style="fill:#E07586;" d="M341.537,110.312c0.186,0.165,0.418,0.246,0.648,0.246c0.269,0,0.537-0.111,0.73-0.328
					c0.359-0.403,0.322-1.02-0.081-1.379c-2.432-2.161-4.978-4.255-7.565-6.223c-0.429-0.327-1.042-0.243-1.369,0.186
					c-0.326,0.429-0.243,1.042,0.186,1.369C336.634,106.121,339.141,108.183,341.537,110.312z"/>
				<path style="fill:#E07586;" d="M243.802,79.626c3.182-0.378,6.417-0.639,9.617-0.774c0.538-0.023,0.957-0.478,0.934-1.017
					c-0.022-0.539-0.479-0.958-1.017-0.934c-3.248,0.137-6.533,0.403-9.764,0.787c-0.536,0.063-0.919,0.549-0.855,1.085
					c0.028,0.234,0.136,0.438,0.294,0.59C243.215,79.556,243.501,79.662,243.802,79.626z"/>
				<path style="fill:#E07586;" d="M384.268,194.443c0.02,0.248,0.131,0.467,0.298,0.627c0.194,0.186,0.464,0.291,0.754,0.267
					c0.538-0.043,0.938-0.514,0.895-1.052c-0.263-3.243-0.654-6.516-1.163-9.727c-0.084-0.533-0.585-0.896-1.117-0.812
					c-0.532,0.084-0.896,0.585-0.812,1.117C383.623,188.026,384.008,191.249,384.268,194.443z"/>
				<path style="fill:#E07586;" d="M133.226,214.751c-0.255-3.191-0.39-6.433-0.402-9.639c-0.001-0.539-0.441-0.974-0.98-0.973
					c-0.539,0.002-0.975,0.441-0.973,0.98c0.012,3.255,0.149,6.547,0.408,9.787c0.02,0.249,0.131,0.468,0.298,0.628
					c0.194,0.186,0.464,0.291,0.753,0.268C132.868,215.759,133.269,215.288,133.226,214.751z"/>
				<path style="fill:#E07586;" d="M263.064,78.812c3.193,0.108,6.429,0.341,9.619,0.693c0.536,0.059,1.019-0.328,1.078-0.864
					c0.059-0.536-0.328-1.017-0.864-1.078c-3.239-0.357-6.525-0.594-9.767-0.704c-0.539-0.018-0.991,0.405-1.009,0.944
					c-0.01,0.289,0.107,0.553,0.301,0.739C262.59,78.702,262.814,78.803,263.064,78.812z"/>
				<path style="fill:#E07586;" d="M380.246,241.446c-0.413-0.128-0.838,0.04-1.075,0.375c-0.492-0.113-0.993,0.158-1.147,0.646
					c-0.966,3.057-2.064,6.113-3.264,9.086c-0.201,0.5,0.04,1.069,0.541,1.271c0.119,0.049,0.243,0.072,0.365,0.072
					c0.318,0,0.616-0.164,0.799-0.432c0.475,0.132,0.982-0.097,1.168-0.565c1.201-3.029,2.297-6.134,3.256-9.229
					C381.049,242.155,380.762,241.609,380.246,241.446z"/>
				<path style="fill:#E07586;" d="M335.413,304.605c-0.338-0.228-0.79-0.24-1.133,0.023c-2.544,1.942-5.195,3.811-7.882,5.555
					c-0.452,0.294-0.581,0.899-0.287,1.352c0.187,0.288,0.501,0.444,0.82,0.444c0.182,0,0.367-0.051,0.531-0.158
					c0.014-0.009,0.027-0.019,0.041-0.028c0.318,0.227,0.748,0.261,1.095,0.035c2.718-1.773,5.404-3.68,7.988-5.667
					c0.428-0.328,0.508-0.942,0.179-1.369C336.433,304.36,335.839,304.289,335.413,304.605z"/>
				<path style="fill:#E07586;" d="M301.676,323.088c-0.073,0.026-0.147,0.049-0.22,0.075c-0.254-0.189-0.584-0.266-0.905-0.151
					c-3.012,1.083-6.105,2.063-9.193,2.911c-0.521,0.143-0.826,0.681-0.683,1.2c0.118,0.434,0.512,0.719,0.94,0.719
					c0.086,0,0.173-0.012,0.259-0.035c0.091-0.025,0.182-0.055,0.273-0.081c0.235,0.182,0.546,0.261,0.855,0.176
					c3.14-0.87,6.282-1.872,9.337-2.977c0.508-0.183,0.77-0.743,0.587-1.25C302.743,323.168,302.183,322.903,301.676,323.088z"/>
				<path style="fill:#E07586;" d="M319.259,315.15c-0.03,0.016-0.061,0.031-0.092,0.048c-0.297-0.222-0.705-0.269-1.049-0.079
					c-2.812,1.533-5.717,2.975-8.633,4.285c-0.492,0.221-0.712,0.799-0.49,1.291c0.163,0.362,0.519,0.577,0.892,0.577
					c0.134,0,0.269-0.028,0.4-0.086c0.049-0.022,0.098-0.047,0.147-0.069c0.276,0.211,0.651,0.276,0.99,0.123
					c2.967-1.339,5.919-2.811,8.774-4.376c0.473-0.259,0.647-0.852,0.388-1.325C320.325,315.061,319.732,314.891,319.259,315.15z"/>
				<path style="fill:#E07586;" d="M263.942,330.491c-0.177,0.007-0.356,0.005-0.533,0.012c-0.167-0.116-0.363-0.194-0.588-0.188
					c-3.196,0.122-6.465,0.124-9.646,0.005c-0.534-0.021-0.992,0.4-1.012,0.94c-0.02,0.539,0.4,0.992,0.939,1.012
					c0.2,0.008,0.405,0.005,0.607,0.011c0.15,0.105,0.321,0.182,0.519,0.189c3.25,0.114,6.546,0.104,9.794-0.03
					c0.539-0.022,0.958-0.477,0.936-1.016C264.935,330.888,264.481,330.469,263.942,330.491z"/>
				<path style="fill:#E07586;" d="M283.091,328.236c-0.119,0.023-0.241,0.04-0.36,0.063c-0.213-0.159-0.484-0.237-0.763-0.183
					c-3.143,0.607-6.349,1.101-9.532,1.465c-0.535,0.061-0.92,0.546-0.858,1.082c0.057,0.498,0.479,0.865,0.969,0.865
					c0.037,0,0.074-0.002,0.113-0.006c0.145-0.017,0.291-0.041,0.436-0.059c0.194,0.146,0.432,0.236,0.693,0.205
					c3.236-0.382,6.492-0.893,9.678-1.517c0.53-0.104,0.875-0.617,0.771-1.146C284.135,328.478,283.62,328.132,283.091,328.236z"/>
				<path style="fill:#E07586;" d="M385.655,203.1c-0.195,0.001-0.365,0.073-0.517,0.172c-0.098-0.033-0.198-0.062-0.307-0.062
					c-0.54,0-0.977,0.437-0.977,0.977v0.293c0,3.212-0.122,6.454-0.362,9.638c-0.041,0.538,0.362,1.007,0.9,1.047
					c0.025,0.002,0.05,0.003,0.074,0.003c0.319,0,0.595-0.165,0.773-0.409c0.009,0.001,0.017,0.006,0.026,0.006
					c0.539,0.039,1.006-0.367,1.044-0.905c0.232-3.238,0.342-6.532,0.326-9.789C386.634,203.534,386.193,203.097,385.655,203.1z"/>
				<path style="fill:#E07586;" d="M349.938,291.524l-0.106,0.11c-0.378-0.208-0.855-0.163-1.168,0.162
					c-2.22,2.307-4.558,4.558-6.949,6.69c-0.402,0.359-0.438,0.976-0.078,1.379c0.193,0.217,0.461,0.327,0.729,0.327
					c0.207,0,0.409-0.076,0.584-0.208c0.36,0.227,0.833,0.214,1.166-0.084c2.41-2.166,4.776-4.459,7.031-6.815l0.202-0.211
					c0.373-0.39,0.36-1.008-0.03-1.381C350.929,291.12,350.311,291.134,349.938,291.524z"/>
				<path style="fill:#E07586;" d="M384.418,222.484c-0.371-0.055-0.715,0.114-0.923,0.396c-0.539-0.073-1.017,0.289-1.097,0.817
					c-0.486,3.172-1.1,6.358-1.825,9.469c-0.123,0.526,0.204,1.051,0.73,1.173c0.074,0.018,0.149,0.026,0.222,0.026
					c0.316,0,0.606-0.16,0.788-0.412c0.507,0.087,1.002-0.228,1.118-0.736c0.721-3.166,1.331-6.404,1.809-9.623
					C385.318,223.06,384.951,222.563,384.418,222.484z"/>
				<path style="fill:#E07586;" d="M373.222,259.548c-0.441-0.216-0.952-0.056-1.222,0.338c-0.457-0.159-0.972,0.026-1.192,0.472
					c-1.422,2.866-2.975,5.718-4.617,8.474c-0.276,0.464-0.124,1.063,0.34,1.339c0.156,0.093,0.329,0.137,0.499,0.137
					c0.315,0,0.618-0.157,0.806-0.433c0.439,0.173,0.948,0.024,1.195-0.395c1.652-2.806,3.214-5.709,4.64-8.626
					C373.908,260.37,373.706,259.783,373.222,259.548z"/>
				<path style="fill:#E07586;" d="M138.804,243.097c-0.163-0.512-0.714-0.796-1.227-0.633c-0.514,0.164-0.797,0.714-0.633,1.228
					c0.991,3.102,2.113,6.202,3.338,9.214c0.053,0.132,0.132,0.245,0.229,0.338c0.27,0.258,0.676,0.349,1.044,0.199
					c0.5-0.203,0.741-0.773,0.538-1.272C140.887,249.205,139.781,246.152,138.804,243.097z"/>
				<path style="fill:#E07586;" d="M155.987,277.493c-0.223-0.31-0.596-0.445-0.951-0.389c-0.022-0.031-0.046-0.062-0.069-0.093
					c-0.312-0.44-0.921-0.546-1.361-0.235c-0.442,0.311-0.546,0.92-0.235,1.361c1.873,2.654,3.875,5.271,5.948,7.779
					c0.193,0.234,0.472,0.354,0.753,0.354c0.061,0,0.12-0.019,0.18-0.031c0.039,0.047,0.076,0.097,0.115,0.144
					c0.025,0.03,0.05,0.057,0.076,0.082c0.354,0.339,0.914,0.365,1.299,0.044c0.415-0.345,0.471-0.961,0.126-1.375
					C159.82,282.673,157.841,280.102,155.987,277.493z"/>
				<path style="fill:#E07586;" d="M168.317,292.304c-0.237-0.245-0.574-0.321-0.889-0.259c-0.059-0.061-0.122-0.119-0.18-0.18
					c-0.374-0.389-0.992-0.399-1.381-0.025c-0.388,0.374-0.4,0.992-0.025,1.381c2.258,2.343,4.634,4.627,7.061,6.789
					c0.186,0.166,0.418,0.248,0.65,0.248c0.069,0,0.133-0.028,0.2-0.042c0.08,0.072,0.16,0.146,0.24,0.217
					c0.404,0.358,1.021,0.321,1.379-0.083c0.358-0.403,0.327-1.008-0.083-1.379C172.896,296.848,170.533,294.589,168.317,292.304z"
					/>
				<path style="fill:#E07586;" d="M146.07,260.966c-0.189-0.38-0.594-0.572-0.993-0.522c-0.249-0.463-0.815-0.653-1.291-0.416
					c-0.483,0.24-0.68,0.826-0.44,1.309c1.442,2.904,3.021,5.795,4.691,8.592c0.182,0.306,0.506,0.476,0.839,0.476
					c0.046,0,0.091-0.012,0.137-0.018c0.008,0.013,0.015,0.027,0.023,0.04c0.045,0.077,0.1,0.145,0.162,0.204
					c0.31,0.297,0.792,0.362,1.178,0.131c0.462-0.278,0.612-0.877,0.335-1.34C149.064,266.678,147.502,263.833,146.07,260.966z"/>
				<path style="fill:#E07586;" d="M244.678,329.816c-0.249-0.028-0.5-0.069-0.75-0.098c-0.11-0.063-0.235-0.104-0.369-0.119
					c-3.183-0.362-6.39-0.851-9.534-1.454c-0.527-0.098-1.042,0.246-1.144,0.775c-0.101,0.53,0.246,1.042,0.775,1.143
					c0.286,0.055,0.577,0.096,0.863,0.149c0.08,0.04,0.166,0.072,0.258,0.089c3.196,0.606,6.453,1.096,9.681,1.457
					c0.536,0.06,1.02-0.326,1.079-0.862C245.599,330.36,245.216,329.876,244.678,329.816z"/>
				<path style="fill:#E07586;" d="M134.361,224.331c-0.086-0.534-0.585-0.896-1.117-0.813c-0.533,0.084-0.897,0.583-0.813,1.117
					c0.507,3.217,1.143,6.452,1.891,9.614c0.045,0.19,0.143,0.354,0.275,0.48c0.232,0.222,0.566,0.325,0.901,0.245
					c0.525-0.124,0.85-0.651,0.726-1.175C135.486,230.685,134.86,227.5,134.361,224.331z"/>
				<path style="fill:#E07586;" d="M190.643,310.619c-2.69-1.734-5.348-3.595-7.9-5.531c-0.232-0.176-0.516-0.223-0.782-0.169
					c-0.103-0.078-0.212-0.152-0.315-0.23c-0.431-0.326-1.042-0.243-1.369,0.185c-0.327,0.429-0.245,1.042,0.184,1.369
					c2.59,1.974,5.287,3.871,8.013,5.638c0.164,0.106,0.348,0.157,0.53,0.157c0.07,0,0.139-0.011,0.208-0.025
					c0.125,0.081,0.246,0.169,0.371,0.249c0.454,0.292,1.058,0.162,1.35-0.292C191.227,311.515,191.093,310.908,190.643,310.619z"/>
				<path style="fill:#E07586;" d="M225.748,326.222c-3.091-0.836-6.187-1.803-9.2-2.873c-0.134-0.048-0.271-0.061-0.404-0.05
					c-0.235-0.082-0.475-0.155-0.709-0.239c-0.505-0.182-1.066,0.082-1.248,0.59c-0.182,0.508,0.082,1.067,0.59,1.249
					c3.064,1.098,6.207,2.089,9.341,2.946c0.086,0.024,0.173,0.035,0.258,0.035c0.018,0,0.035-0.008,0.053-0.009
					c0.27,0.075,0.538,0.163,0.808,0.236c0.521,0.141,1.057-0.167,1.198-0.687C226.576,326.898,226.268,326.361,225.748,326.222z"/>
				<path style="fill:#E07586;" d="M207.599,319.779c-2.925-1.3-5.837-2.731-8.654-4.253c-0.194-0.105-0.406-0.121-0.608-0.09
					c-0.167-0.09-0.339-0.172-0.505-0.262c-0.472-0.258-1.066-0.082-1.325,0.391c-0.258,0.474-0.082,1.067,0.392,1.325
					c2.86,1.556,5.815,3.02,8.782,4.35c0.13,0.058,0.265,0.086,0.399,0.086c0.056,0,0.11-0.014,0.164-0.023
					c0.188,0.085,0.374,0.179,0.563,0.263c0.493,0.219,1.07-0.003,1.289-0.496C208.313,320.575,208.093,319.999,207.599,319.779z"/>
			</g>
			<g>
				<g>
					<g>
						<path style="fill:#E07586;" d="M259.094,187.592l-25.361-29.889h7.257c4.291,0,7.769-3.479,7.769-7.769v-56.27
							c0-4.291-3.479-7.769-7.769-7.769H139.615c-4.291,0-7.769,3.479-7.769,7.769v56.27c0,4.291,3.479,7.769,7.769,7.769h56.353
							l-0.537,0.244L259.094,187.592z"/>
					</g>
					<g>
						<g>
							<rect x="149.645" y="98.331" style="fill:#FFFFFF;" width="81.315" height="1.465"/>
						</g>
						<g>
							<rect x="149.645" y="105.909" style="fill:#FFFFFF;" width="81.315" height="1.465"/>
						</g>
						<g>
							<rect x="149.645" y="113.488" style="fill:#FFFFFF;" width="47.681" height="1.465"/>
						</g>
						<g>
							<rect x="149.645" y="121.066" style="fill:#FFFFFF;" width="81.315" height="1.465"/>
						</g>
						<g>
							<rect x="149.645" y="128.644" style="fill:#FFFFFF;" width="81.315" height="1.465"/>
						</g>
						<g>
							<rect x="149.645" y="136.223" style="fill:#FFFFFF;" width="81.315" height="1.465"/>
						</g>
						<g>
							<rect x="149.645" y="143.802" style="fill:#FFFFFF;" width="21.171" height="1.465"/>
						</g>
					</g>
				</g>
				<g>
					<g>
						<path style="fill:#5F78A0;" d="M309.163,112.178h-5.892c-4.491,0-8.144-3.653-8.144-8.144V59.645
							c0-4.491,3.653-8.145,8.144-8.145h82.031c4.491,0,8.145,3.654,8.145,8.145v44.389c0,4.491-3.653,8.144-8.145,8.144h-52.278
							l-23.694,25.518L309.163,112.178z"/>
						<path style="fill:#5F78A0;" d="M385.303,51.876c4.291,0,7.769,3.479,7.769,7.77v44.388c0,4.291-3.478,7.769-7.769,7.769
							h-53.079l0.448,0.203l-22.973,24.741l-0.164-24.944h-6.263c-4.291,0-7.77-3.479-7.77-7.769V59.645
							c0-4.291,3.479-7.77,7.77-7.77H385.303 M385.303,51.126h-82.031c-4.698,0-8.52,3.822-8.52,8.52v44.388
							c0,4.698,3.822,8.519,8.52,8.519h5.518l0.159,24.199l0.012,1.892l1.287-1.386l22.939-24.704h52.115
							c4.698,0,8.519-3.822,8.519-8.519V59.645C393.822,54.947,390,51.126,385.303,51.126L385.303,51.126z"/>
					</g>
					<g>
						<g>
							<rect x="311.021" y="65.063" style="fill:#FFFFFF;" width="67.861" height="1.465"/>
						</g>
						<g>
							<rect x="311.021" y="71.388" style="fill:#FFFFFF;" width="67.861" height="1.465"/>
						</g>
						<g>
							<rect x="311.021" y="77.712" style="fill:#FFFFFF;" width="54.617" height="1.465"/>
						</g>
						<g>
							<rect x="311.021" y="84.037" style="fill:#FFFFFF;" width="67.861" height="1.465"/>
						</g>
						<g>
							<rect x="311.021" y="90.361" style="fill:#FFFFFF;" width="18.723" height="1.465"/>
						</g>
						<g>
							<rect x="311.021" y="96.686" style="fill:#FFFFFF;" width="46.404" height="1.465"/>
						</g>
					</g>
				</g>
			</g>
		</g>
		<g>
			<g>
				<g>
					<g>
						<g>
							<g>
								<g>
									<path style="fill:#323443;" d="M338.527,435.757h-4.883v-6.65c0-3.499-2.847-6.346-6.346-6.346h-46.367v-4.883h46.367
										c6.192,0,11.229,5.038,11.229,11.229V435.757z"/>
								</g>
								<g>
									<path style="fill:#323443;" d="M314.636,435.757h-4.883v-6.65c0-3.499-2.847-6.346-6.346-6.346h-22.429v-4.883h22.429
										c6.192,0,11.229,5.038,11.229,11.229V435.757z"/>
								</g>
							</g>
							<g>
								<g>
									<path style="fill:#323443;" d="M240.031,435.757h-4.883v-9.644c0-4.541,3.695-8.236,8.236-8.236h49.361v4.883h-49.361
										c-1.848,0-3.352,1.504-3.352,3.353V435.757z"/>
								</g>
								<g>
									<path style="fill:#323443;" d="M263.922,435.757h-4.883v-9.043c0-4.872,3.964-8.836,8.836-8.836h24.822v4.883h-24.822
										c-2.18,0-3.953,1.773-3.953,3.953V435.757z"/>
								</g>
							</g>
						</g>
						<g>
							<g>
								<rect x="278.145" y="382.06" style="fill:#323443;" width="14.26" height="40.212"/>
							</g>
							<g>
								<rect x="272.277" y="357.563" style="fill:#323443;" width="25.996" height="40.212"/>
							</g>
						</g>
						<g>
							<g>
								<path style="fill:#1A1D27;" d="M343.556,438.374c0,4.125-3.344,7.469-7.469,7.469c-4.125,0-7.47-3.344-7.47-7.469
									c0-4.125,3.344-7.47,7.47-7.47C340.212,430.904,343.556,434.248,343.556,438.374z"/>
							</g>
							<g>
								<path style="fill:#464A5F;" d="M336.086,430.904c-4.125,0-7.47,3.344-7.47,7.47h14.939
									C343.556,434.248,340.212,430.904,336.086,430.904z"/>
							</g>
						</g>
						<g>
							<g>
								<path style="fill:#1A1D27;" d="M319.664,438.374c0,4.125-3.344,7.469-7.469,7.469s-7.47-3.344-7.47-7.469
									c0-4.125,3.344-7.47,7.47-7.47S319.664,434.248,319.664,438.374z"/>
							</g>
							<g>
								<path style="fill:#464A5F;" d="M312.194,430.904c-4.125,0-7.47,3.344-7.47,7.47h14.939
									C319.664,434.248,316.32,430.904,312.194,430.904z"/>
							</g>
						</g>
						<g>
							<g>
								<path style="fill:#1A1D27;" d="M268.95,438.374c0,4.125-3.344,7.469-7.469,7.469c-4.125,0-7.47-3.344-7.47-7.469
									c0-4.125,3.344-7.47,7.47-7.47C265.606,430.904,268.95,434.248,268.95,438.374z"/>
							</g>
							<g>
								<path style="fill:#464A5F;" d="M261.481,430.904c-4.125,0-7.47,3.344-7.47,7.47h14.939
									C268.95,434.248,265.606,430.904,261.481,430.904z"/>
							</g>
						</g>
					</g>
					<g>
						<g>
							<g>
								<path style="fill:#E07586;" d="M347.158,309.195h-46.861c-4.737,0-8.577-3.84-8.577-8.577l2.93-67.573
									c0-4.737,3.84-8.577,8.577-8.577h60.534c4.737,0,8.577,3.84,8.577,8.577l-16.603,67.573
									C355.736,305.355,351.895,309.195,347.158,309.195z"/>
							</g>
							<g>
								<path style="fill:#E07586;" d="M331.289,361.395h-94.993c-6.21,0-11.244-5.034-11.244-11.244l0,0
									c0-6.21,5.034-11.244,11.244-11.244h94.993c6.21,0,11.244,5.034,11.244,11.244l0,0
									C342.533,356.361,337.498,361.395,331.289,361.395z"/>
							</g>
							<g style="opacity:0.4;">
								<path style="fill:#E07586;" d="M331.289,361.395h-36.253c-6.21,0-11.244-5.034-11.244-11.244l0,0
									c0-6.21,5.034-11.244,11.244-11.244h36.253c6.21,0,11.244,5.034,11.244,11.244l0,0
									C342.533,356.361,337.498,361.395,331.289,361.395z"/>
							</g>
							<g>
								<g>
									
										<rect x="286.934" y="314.435" transform="matrix(0.242 -0.9703 0.9703 0.242 -77.6832 543.1075)" style="fill:#E07586;" width="43.629" height="13.673"/>
								</g>
							</g>
						</g>
						<g style="opacity:0.4;">
							<path style="fill:#E07586;" d="M347.415,308.197L347.415,308.197c-3.322-0.82-5.351-4.177-4.531-7.499l17.155-69.544
								c0.82-3.322,4.177-5.351,7.499-4.531l0,0c3.322,0.82,5.351,4.177,4.532,7.499l-17.155,69.544
								C354.094,306.987,350.737,309.016,347.415,308.197z"/>
						</g>
					</g>
				</g>
				<g>
					<g>
						<polygon style="fill:#454B5F;" points="187.826,429.406 180.389,429.406 187.225,311.324 200.522,311.324 						"/>
					</g>
				</g>
			</g>
			<g>
				<g>
					<g>
						<g>
							<path style="fill:#5F78A0;" d="M282.742,230.229l15.552-14.915l5.089-6.068l15.917-2.688c1.219-0.206,2.47-0.109,3.643,0.281
								l2.63,0.876c0,0-0.19,1.316,4.153,4.932c5.796,4.826,16.819,13.023,19.702,20.661L282.742,230.229z"/>
						</g>
					</g>
					<g>
						<g>
							<g>
								<g>
									<path style="fill:#D49868;" d="M216.781,289.377l-5.607-0.983c-0.524-0.092-1.056,0.115-1.38,0.537l-4.072,5.307
										c-0.567,0.74-0.286,1.816,0.571,2.182l0,0c0.576,0.246,1.244,0.089,1.65-0.388l3.34-3.931
										c0.389-0.457,1.022-0.623,1.585-0.414l3.045,1.129c0.833,0.309,1.744-0.21,1.902-1.085l0.125-0.693
										C218.08,290.259,217.561,289.514,216.781,289.377z"/>
								</g>
							</g>
							<g>
								<g style="opacity:0.5;">
									<g>
										<path style="fill:#C4814E;" d="M205.145,294.986c0,0,0.372,0.831,2.024-1.15c1.226-1.47,3.215-3.361,4.159-4.238
											c0.321-0.298,0.784-0.381,1.189-0.212l3.553,1.477l-5.075-3.156L205.145,294.986z"/>
									</g>
								</g>
								<g>
									<g>
										<path style="fill:#D49868;" d="M218.476,289.399l-1.611-3.395c-0.157-0.331-0.491-0.542-0.857-0.542l-6.823-0.007
											c-0.301,0-0.584,0.142-0.763,0.383l-5.06,6.8c-0.025,0.033-0.048,0.068-0.068,0.105l-0.961,1.724
											c-0.388,0.696,0.202,1.531,0.988,1.399c0,0,1.725-0.156,2.551-1.244l1.881-2.205c0.036-0.065,0.08-0.125,0.13-0.179
											l3.162-3.423c0.235-0.254,0.589-0.361,0.925-0.278l2.063,0.508c0.073,0.018,0.144,0.045,0.21,0.079l2.938,1.525
											c0.607,0.315,1.339-0.096,1.385-0.779l0,0C218.576,289.709,218.546,289.546,218.476,289.399z"/>
									</g>
								</g>
							</g>
							<g>
								<g style="opacity:0.5;">
									<g>
										<path style="fill:#C4814E;" d="M210.238,285.705c0.777-0.326,1.651,0.073,2.397,0.464
											c1.523,0.798,3.045,1.595,4.568,2.393c-1.366-0.312,1.394,1.441-4.098-0.937c-0.523-0.227-1.491-0.496-2.054-0.408
											c-1.207,0.19-7.204,7.726-7.442,7.821c-0.524,0.209-0.812-0.128-1.375-0.083c1.725-2.369,3.293-4.605,5.255-6.781
											C208.305,287.27,209.115,286.177,210.238,285.705z"/>
									</g>
								</g>
								<g>
									<g>
										<path style="fill:#D49868;" d="M219.34,287.811l-1.972-4.153c-0.192-0.405-0.6-0.663-1.049-0.664l-8.349-0.008
											c-0.368,0-0.714,0.173-0.934,0.468l-6.192,8.321c-0.03,0.041-0.058,0.084-0.083,0.128l-1.176,2.11
											c-0.475,0.852,0.247,1.874,1.208,1.712c0,0,2.11-0.191,3.122-1.523l2.302-2.699c0.044-0.079,0.098-0.152,0.159-0.219
											l3.87-4.189c0.287-0.311,0.721-0.441,1.132-0.34l2.524,0.622c0.089,0.022,0.176,0.055,0.257,0.097l3.594,1.866
											c0.743,0.386,1.638-0.117,1.695-0.953l0,0C219.464,288.19,219.426,287.991,219.34,287.811z"/>
									</g>
								</g>
							</g>
							<g>
								<g>
									<g>
										<path style="fill:#C4814E;" d="M201.013,292.471c0,0-0.183,2.261,1.376,0.715c1.56-1.546,8.247-7.394,8.247-7.394
											l6.473,1.754l-6.607-4.54L201.013,292.471z"/>
									</g>
								</g>
								<g>
									<g>
										<path style="fill:#EAAE7F;" d="M219.791,287.181l-1.772-4.729c-0.173-0.461-0.596-0.782-1.086-0.824l-9.138-0.784
											c-0.403-0.035-0.798,0.123-1.065,0.426l-7.55,8.533c-0.037,0.042-0.071,0.086-0.103,0.132l-1.483,2.2
											c-0.598,0.888,0.096,2.074,1.164,1.986c0,0,1.572-0.009,2.815-0.769c0.27-0.165,0.524-0.365,0.743-0.608l2.77-2.74
											c0.056-0.082,0.121-0.158,0.194-0.224l4.625-4.226c0.343-0.314,0.83-0.416,1.27-0.267l2.705,0.915
											c0.096,0.032,0.187,0.076,0.273,0.13l3.761,2.376c0.778,0.491,1.804,0.024,1.944-0.885l0,0
											C219.891,287.607,219.868,287.386,219.791,287.181z"/>
									</g>
								</g>
							</g>
							<g>
								<g>
									<path style="fill:#D49868;" d="M215.831,287.293l-1.225,5.094l5.088,4.583
										C223.937,290.891,218.017,289.718,215.831,287.293z"/>
								</g>
							</g>
							<g>
								<g>
									<path style="fill:#EAAE7F;" d="M217.184,281.665l-1.353,5.629c2.186,2.424,9.018,2.757,3.864,9.677l2.979,2.683
										l8.835-1.015l-0.739-10.485L217.184,281.665z"/>
								</g>
							</g>
							<g>
								<g>
									<path style="fill:#EAAE7F;" d="M215.712,287.317c0,0,4.392,3.45,4.719,5.743c0.327,2.293-7.509,0.562-9.46,4.931
										c-1.95,4.37,1.115,2.034,4.421,1.517c3.306-0.517,7.283,0.145,7.283,0.145l2.939-9.756L215.712,287.317z"/>
								</g>
							</g>
						</g>
						<g>
							<g>
								<g>
									<path style="fill:#C0D3EB;" d="M269.425,301.316L269.425,301.316c-4.972-1.677-7.642-7.067-5.965-12.039l19.068-56.525
										c1.677-4.972,7.067-7.643,12.039-5.965h0c4.972,1.677,7.643,7.067,5.965,12.039l-19.068,56.525
										C279.787,300.323,274.397,302.994,269.425,301.316z"/>
								</g>
							</g>
							<g>
								<g>
									<path style="fill:#C0D3EB;" d="M237.579,302.456l-0.272-18.211l35.131-0.525c5.029-0.075,9.167,3.941,9.242,8.97l0,0
										c0.075,5.029-3.941,9.166-8.969,9.242L237.579,302.456z"/>
								</g>
							</g>
							<g>
								<g>
									
										<rect x="221.883" y="286.35" transform="matrix(0.0149 0.9999 -0.9999 0.0149 521.7473 57.0918)" style="fill:#5F78A0;" width="20.029" height="13.997"/>
								</g>
							</g>
						</g>
					</g>
					<g>
						<g>
							<path style="fill:#5F78A0;" d="M282.742,230.229c0,0,6.613-8.947,23.915-13.602c17.302-4.655,42.591,3.127,43.987,22.445
								c0,0-3.228,43.765-19.747,76.638h-47.243C283.654,315.709,296.036,259.057,282.742,230.229z"/>
						</g>
					</g>
					<g>
						<g>
							<polygon style="fill:#C0D3EB;" points="325.571,207.715 306.723,217.356 313.224,229.457 329.724,212.647 							"/>
						</g>
					</g>
					<g>
						<g>
							<polygon style="fill:#C0D3EB;" points="303.227,209.246 306.723,217.356 299.401,229.457 298.294,215.314 							"/>
						</g>
					</g>
					<g>
						<g>
							<polygon style="fill:#D49868;" points="304.139,204.123 306.723,217.356 323.475,208.787 321.332,197.977 303.227,194.745 
															"/>
						</g>
					</g>
					<g>
						<g>
							<path style="fill:#EAAE7F;" d="M321.424,200.679l-12.315,7.141c-1.607,0.932-3.469,1.426-5.369,1.426l0,0
								c-3.401,0-6.571-1.579-8.428-4.196l-4.252-5.994c-1.045-1.473-1.611-3.188-1.632-4.946l-0.283-23.495
								c0-7.471,6.592-13.528,14.723-13.528h3.763c10.209,0,18.486,7.605,18.486,16.986v18.789
								C326.116,196.034,324.345,198.985,321.424,200.679z"/>
						</g>
					</g>
					<g>
						<g>
							<path style="fill:#381B18;" d="M322.862,198.626v-8.587c0-0.082-0.02-0.162-0.057-0.234l-1.33-2.562
								c-0.087-0.168-0.261-0.274-0.451-0.274h-1.657c-0.28,0-0.508-0.227-0.508-0.508v-16.005c0-3.433-2.783-6.216-6.217-6.216
								h-18.118c-2.969,0-5.374,2.411-5.366,5.38l0.027,10.912l-0.912-9.517c-0.715-7.468,5.156-13.929,12.658-13.929h12.554
								c8.227,0,14.707,7.013,14.059,15.214l-1.426,18.039c-0.002,0.026-0.002,0.052,0,0.078c0.04,0.497,0.398,5.872-2.391,8.57
								C323.404,199.301,322.862,199.078,322.862,198.626z"/>
						</g>
					</g>
					<g>
						<g>
							<path style="fill:#D49868;" d="M324.94,190.577L324.94,190.577c-1.993,0-3.608-1.615-3.608-3.608v-5.976
								c0-1.993,1.615-3.608,3.608-3.608l0,0c1.993,0,3.608,1.615,3.608,3.608v5.976
								C328.548,188.962,326.933,190.577,324.94,190.577z"/>
						</g>
					</g>
					<g>
						<g>
							<polygon style="fill:#D49868;" points="300.135,177.765 295.55,190.869 300.135,193.902 							"/>
						</g>
					</g>
					<g>
						<g>
							<path style="fill:#381B18;" d="M294.643,183.166L294.643,183.166c-1.049,0-1.9-0.85-1.9-1.899v-1.982
								c0-1.049,0.851-1.899,1.9-1.899l0,0c1.049,0,1.9,0.85,1.9,1.899v1.982C296.542,182.316,295.692,183.166,294.643,183.166z"/>
						</g>
					</g>
					<g>
						<g>
							<path style="fill:#381B18;" d="M307.631,183.325L307.631,183.325c-1.049,0-1.9-0.85-1.9-1.899v-1.982
								c0-1.049,0.85-1.9,1.9-1.9l0,0c1.049,0,1.9,0.85,1.9,1.9v1.982C309.53,182.475,308.68,183.325,307.631,183.325z"/>
						</g>
					</g>
					<g>
						<g>
							<path style="fill:#381B18;" d="M296.904,174.196c-1.386-0.756-4.072-1.562-6.443,1.586c0,0,1.188-4.577,7.105-3.523
								c0.672,0.12,1.06,0.83,0.779,1.452l0,0C298.097,174.262,297.434,174.486,296.904,174.196z"/>
						</g>
					</g>
					<g>
						<g>
							<path style="fill:#381B18;" d="M306.111,174.196c1.558-0.756,4.577-1.562,7.24,1.586c0,0-1.335-4.577-7.985-3.523
								c-0.755,0.12-1.191,0.83-0.876,1.452l0,0C304.77,174.262,305.515,174.486,306.111,174.196z"/>
						</g>
					</g>
					<g>
						<g>
							<path style="fill:#FFFFFF;" d="M294.947,195.615c0,0,4.922,3.602,12.988,0c0,0-2.178,7.835-7.495,7.835
								C297.189,203.451,294.947,195.615,294.947,195.615z"/>
						</g>
					</g>
					<g>
						<g>
							<ellipse style="fill:#1A1F29;" cx="325.167" cy="184" rx="6.943" ry="8.218"/>
						</g>
					</g>
					<g>
						<g>
							<path style="fill:#0A0C0E;" d="M332.11,184.109c0,3.714-2.566,6.724-5.732,6.724s-5.732-3.01-5.732-6.724
								s2.566-6.724,5.732-6.724S332.11,180.395,332.11,184.109z"/>
						</g>
					</g>
					<g>
						<g>
							<path style="fill:#0A0C0E;" d="M324.78,183.326h-1.824v-21.77c0-1.73-1.217-3.214-2.905-3.558h-6.023v-1.824l6.273,0.014
								c2.596,0.472,4.48,2.729,4.48,5.367V183.326z"/>
						</g>
					</g>
					<g>
						<g>
							<path style="fill:#381B18;" d="M286.302,152.432c0,0-3.589,14.302,18.227,14.302c10.313,0,16.084-2.901,16.084-6.178
								C320.612,142.669,292.743,164.064,286.302,152.432z"/>
						</g>
					</g>
				</g>
				<g>
					<g>
						<g>
							<g>
								<polygon style="fill:#EAAE7F;" points="269.951,302.84 261.031,303.64 253.091,296.122 255.956,285.392 269.47,292.265 
																	"/>
							</g>
						</g>
						<g>
							<g>
								<g>
									<path style="fill:#EAAE7F;" d="M258.442,291.012l-1.666-4.806c-0.162-0.469-0.58-0.802-1.073-0.857l-9.18-1.019
										c-0.404-0.045-0.806,0.104-1.083,0.402l-7.815,8.401c-0.038,0.041-0.074,0.085-0.107,0.131l-1.548,2.178
										c-0.625,0.879,0.045,2.09,1.122,2.028c0,0,2.344,0.045,3.617-1.297l2.858-2.689c0.058-0.081,0.126-0.155,0.201-0.221
										l4.762-4.138c0.353-0.307,0.846-0.398,1.286-0.237l2.7,0.989c0.096,0.035,0.187,0.081,0.271,0.138l3.727,2.487
										c0.771,0.514,1.816,0.069,1.979-0.842l0,0C258.531,291.443,258.514,291.22,258.442,291.012z"/>
								</g>
							</g>
							<g>
								<g>
									<path style="fill:#C4814E;" d="M254.727,286.092l-8.257-0.886c-0.536-0.058-1.06,0.184-1.365,0.629l-6.046,8.841
										L254.727,286.092z"/>
								</g>
							</g>
						</g>
						<g>
							<g>
								<g>
									<path style="fill:#EAAE7F;" d="M257.865,291.024l-1.881-4.231c-0.183-0.412-0.588-0.683-1.039-0.695l-8.406-0.218
										c-0.37-0.01-0.723,0.157-0.952,0.448l-6.443,8.222c-0.032,0.04-0.061,0.083-0.087,0.127l-1.237,2.095
										c-0.499,0.846,0.202,1.893,1.174,1.754c0,0,2.129-0.139,3.181-1.455l2.385-2.659c0.047-0.078,0.102-0.151,0.166-0.216
										l4.001-4.12c0.297-0.306,0.737-0.426,1.148-0.314l2.525,0.689c0.089,0.024,0.176,0.059,0.257,0.104l3.572,1.969
										c0.739,0.407,1.652-0.077,1.73-0.916l0,0C257.98,291.408,257.947,291.207,257.865,291.024z"/>
								</g>
							</g>
							<g>
								<g>
									<g>
										<path style="fill:#C4814E;" d="M254.932,289.229l-7.377-0.955c-0.512-0.066-1.015,0.173-1.287,0.611l-5.277,8.501
											L254.932,289.229z"/>
									</g>
								</g>
								<g>
									<g>
										<g>
											<path style="fill:#EAAE7F;" d="M257.062,293.212l-1.537-3.458c-0.15-0.337-0.48-0.558-0.849-0.568l-6.869-0.178
												c-0.303-0.008-0.591,0.128-0.778,0.366l-5.265,6.719c-0.026,0.033-0.049,0.068-0.071,0.104l-1.011,1.712
												c-0.408,0.691,0.165,1.547,0.959,1.433c0,0,1.74-0.114,2.6-1.189l1.949-2.173c0.038-0.064,0.084-0.123,0.135-0.177
												l3.27-3.367c0.243-0.25,0.602-0.348,0.938-0.256l2.064,0.564c0.073,0.02,0.143,0.049,0.21,0.085l2.919,1.609
												c0.604,0.333,1.35-0.063,1.414-0.749l0,0C257.155,293.526,257.128,293.361,257.062,293.212z"/>
										</g>
									</g>
									<g>
										<g>
											<path style="fill:#C4814E;" d="M253.961,292.866l-4.542-1.413c-0.509-0.159-1.063,0.035-1.362,0.477l-3.955,5.833
												L253.961,292.866z"/>
										</g>
									</g>
									<g>
										<g>
											<path style="fill:#EAAE7F;" d="M255.356,293.147l-5.62-1.131c-0.525-0.106-1.066,0.089-1.402,0.506l-4.233,5.241
												c-0.59,0.73-0.333,1.821,0.52,2.211l0,0c0.573,0.262,1.251,0.12,1.671-0.35l3.461-3.874
												c0.403-0.451,1.044-0.601,1.606-0.377l3.037,1.213c0.831,0.332,1.761-0.168,1.942-1.045l0.143-0.695
												C256.642,294.067,256.137,293.304,255.356,293.147z"/>
										</g>
									</g>
								</g>
							</g>
						</g>
					</g>
					<g>
						<g>
							<g>
								<path style="fill:#C0D3EB;" d="M313.876,307.384L313.876,307.384c-5.313-1.941-8.046-7.821-6.105-13.134l22.067-60.4
									c1.941-5.313,7.821-8.046,13.134-6.105l0,0c5.313,1.941,8.046,7.821,6.105,13.134l-22.068,60.4
									C325.069,306.592,319.189,309.325,313.876,307.384z"/>
							</g>
						</g>
						<g>
							<g>
								<path style="fill:#C0D3EB;" d="M279.528,307.756l0.196-19.632l37.873,0.378c5.421,0.054,9.772,4.493,9.718,9.914l0,0
									c-0.054,5.421-4.493,9.772-9.914,9.718L279.528,307.756z"/>
							</g>
						</g>
						<g>
							<g>
								
									<rect x="262.854" y="290.246" transform="matrix(-0.01 1 -1 -0.01 574.157 27.1271)" style="fill:#5F78A0;" width="21.59" height="15.088"/>
							</g>
						</g>
					</g>
				</g>
			</g>
			<g>
				<g>
					<g>
						<g>
							<g>
								<g>
									<g>
										<path style="fill:#323443;" d="M192.268,433.879l14.515,0.066c4.328-7.198-0.796-14.094-0.796-14.094
											c-1.383,1.884-12.727,2.348-15.977-0.759c-3.251-3.108-4.285-2.425-4.285-2.425s-8.447,5.976-13.098,8.533
											c-4.651,2.557-7.394,0.998-12.041,2.695c-4.647,1.697-4.666,5.821-4.666,5.821l32.003,0.145
											C188.685,433.201,191.939,433.221,192.268,433.879z"/>
									</g>
								</g>
								<g>
									<g>
										<path style="fill:#28282B;" d="M187.922,433.859l-32.003-0.145l-0.008,1.829c-0.003,0.698,0.56,1.266,1.258,1.27
											l27.365,0.124c0.461,0.002,0.892-0.211,1.164-0.583C186.167,435.709,186.993,434.661,187.922,433.859z"/>
									</g>
								</g>
								<g>
									<g>
										<path style="fill:#28282B;" d="M206.782,433.944l-14.515-0.066c0.191,0.383,0.276,0.846,0.258,1.368
											c-0.032,0.93,0.637,1.729,1.568,1.733l11.416,0.052L206.782,433.944z"/>
									</g>
								</g>
							</g>
						</g>
					</g>
					<g>
						<g>
							<g>
								<rect x="202.45" y="322.403" style="fill:#1A1D27;" width="82.435" height="24.66"/>
							</g>
						</g>
						<g>
							<g>
								<polygon style="fill:#1A1D27;" points="230.221,327.021 209.331,424.886 182.903,417.877 202.24,322.463 								"/>
							</g>
						</g>
					</g>
				</g>
				<g>
					<g>
						<g>
							<path style="fill:#323443;" d="M330.897,315.709l-7.193,21.904c-1.851,5.638-7.115,9.449-13.049,9.449h-43.602l16.6-31.353
								H330.897z"/>
						</g>
					</g>
					<g>
						<g>
							<rect x="247.36" y="322.372" style="fill:#323443;" width="60.575" height="24.69"/>
						</g>
					</g>
					<g>
						<g>
							<g>
								<g>
									<g>
										<g>
											<path style="fill:#575759;" d="M236.129,440.795l14.515,0.065c4.328-7.198-0.796-14.094-0.796-14.094
												c-1.383,1.884-12.727,2.348-15.977-0.759c-3.251-3.108-4.285-2.425-4.285-2.425s-8.447,5.976-13.098,8.533
												c-4.651,2.556-7.394,0.998-12.041,2.695c-4.647,1.697-4.666,5.821-4.666,5.821l32.003,0.144
												C232.546,440.117,235.801,440.137,236.129,440.795z"/>
										</g>
									</g>
									<g>
										<g>
											<path style="fill:#323443;" d="M231.784,440.775l-32.003-0.144l-0.008,1.829c-0.003,0.698,0.56,1.267,1.258,1.27
												l27.365,0.124c0.461,0.002,0.893-0.211,1.164-0.583C230.029,442.625,230.855,441.577,231.784,440.775z"/>
										</g>
									</g>
									<g>
										<g>
											<path style="fill:#323443;" d="M250.644,440.86l-14.515-0.065c0.191,0.383,0.276,0.846,0.258,1.368
												c-0.032,0.93,0.637,1.729,1.568,1.733l11.416,0.052L250.644,440.86z"/>
										</g>
									</g>
								</g>
							</g>
						</g>
						<g>
							<g>
								<polygon style="fill:#323443;" points="274.387,326.855 253.076,434.301 226.817,424.22 247.149,322.433 								"/>
							</g>
						</g>
					</g>
				</g>
			</g>
			<g>
				<g>
					<g>
						<polygon style="fill:#4E546A;" points="112.111,448.124 104.674,448.124 119.323,311.324 132.621,311.324 						"/>
					</g>
				</g>
				<g>
					<g>
						<polygon style="fill:#454B5F;" points="293.28,448.124 285.842,448.124 275.099,311.324 288.396,311.324 						"/>
					</g>
				</g>
				<g>
					<g>
						<polygon style="fill:#454B5F;" points="374.986,448.124 367.549,448.124 344.11,311.324 357.407,311.324 						"/>
					</g>
				</g>
				<g>
					<g>
						<rect x="98.862" y="303.467" style="fill:#D18348;" width="276.936" height="8.647"/>
					</g>
				</g>
				<g style="opacity:0.5;">
					<rect x="256.511" y="303.467" style="fill:#D18348;" width="119.287" height="8.647"/>
				</g>
			</g>
			<g>
				<g>
					<g>
						<rect x="217.993" y="299.352" style="fill:#1A1D27;" width="64.37" height="4.237"/>
					</g>
				</g>
				<g>
					<g>
						<g>
							<g>
								<polygon style="fill:#323443;" points="231.824,195.398 255.357,288.635 250.676,288.635 226.709,195.398 								"/>
							</g>
						</g>
						<g>
							<g>
								<polygon style="fill:#1A1D27;" points="250.676,288.635 184.533,288.635 162.28,195.3 227.047,195.3 								"/>
							</g>
						</g>
					</g>
					<g>
						<g>
							<path style="fill:#323443;" d="M206.202,299.352l2.861-41.116c0.152-2.19,2.521-3.485,4.447-2.433l0,0
								c1.034,0.565,1.644,1.682,1.559,2.857l-2.918,40.692H206.202z"/>
						</g>
					</g>
					<g>
						<g>
							<rect x="186.851" y="299.352" style="fill:#323443;" width="46.962" height="4.237"/>
						</g>
					</g>
					<g>
						<g>
							<path style="fill:#323443;" d="M224.615,248.736h-34.022c-0.618,0-1.119-0.501-1.119-1.119l0,0
								c0-0.618,0.501-1.119,1.119-1.119h34.022c0.618,0,1.119,0.501,1.119,1.119l0,0
								C225.735,248.234,225.233,248.736,224.615,248.736z"/>
						</g>
					</g>
				</g>
			</g>
		</g>
	</g>
</g>
<g id="DESIGNED_BY_FREEPIK">
	<g>
		<g id="XMLID_319_">
			<g id="XMLID_338_">
				<path id="XMLID_346_" style="fill:#1D262D;" d="M260.104,472.873c-0.432,0.443-0.803,0.931-1.108,1.453l-0.465-0.241
					c-0.067-0.298-0.349-0.503-0.659-0.466c-0.331,0.039-0.568,0.339-0.529,0.67c0.039,0.331,0.339,0.568,0.67,0.529
					c0.065-0.008,0.127-0.026,0.184-0.052l0.451,0.234c-0.251,0.554-0.433,1.139-0.539,1.744l0.746,0.132
					c0.23-1.306,0.85-2.507,1.792-3.473L260.104,472.873z"/>
				<path id="XMLID_345_" style="fill:#1D262D;" d="M265.592,470.571c-0.171,0-0.341,0.006-0.51,0.017l-0.074-0.626
					c0.188-0.149,0.296-0.389,0.266-0.645c-0.046-0.393-0.402-0.674-0.795-0.628s-0.674,0.402-0.628,0.795
					c0.03,0.254,0.189,0.461,0.405,0.564l0.073,0.624c-0.714,0.116-1.403,0.332-2.06,0.646l0.327,0.684
					c0.934-0.447,1.942-0.673,2.995-0.673c0.496,0,0.993,0.053,1.475,0.158l0.161-0.741
					C266.693,470.63,266.142,470.571,265.592,470.571z"/>
				<path id="XMLID_344_" style="fill:#1D262D;" d="M272.194,473.118c0.331-0.04,0.566-0.341,0.525-0.672
					c-0.04-0.331-0.341-0.566-0.672-0.526c-0.309,0.038-0.535,0.304-0.53,0.609l-0.416,0.363c-0.418-0.43-0.89-0.813-1.408-1.139
					l-0.404,0.641c1.134,0.715,2.021,1.726,2.563,2.925l0.691-0.313c-0.251-0.554-0.568-1.072-0.942-1.545l0.402-0.351
					C272.065,473.123,272.129,473.126,272.194,473.118z"/>
				<path id="XMLID_343_" style="fill:#1D262D;" d="M265.044,480.78c-0.386,0.023-0.775,0.035-1.157,0.035
					c-0.88,0-1.733-0.061-2.478-0.179c-0.39-0.062-0.846-0.155-1.27-0.292c1.046,1.861,3.069,3.125,5.388,3.125
					c2.855,0,5.262-1.916,5.95-4.504c-0.682,0.449-1.505,0.825-2.459,1.123C267.839,480.455,266.464,480.694,265.044,480.78z"/>
				<path id="XMLID_339_" style="fill:#1D262D;" d="M265.592,472.087c-3.352,0-6.08,2.666-6.08,5.944
					c0,0.426,0.046,0.849,0.137,1.261c0.674,0.483,2.706,0.89,5.348,0.731c2.879-0.173,5.297-0.957,6.672-2.159
					c-0.005-0.195-0.021-0.39-0.045-0.582C271.244,474.321,268.65,472.087,265.592,472.087z M263.432,478.602
					c-1.02,0-1.85-0.83-1.85-1.85c0-1.02,0.83-1.85,1.85-1.85c1.02,0,1.85,0.83,1.85,1.85
					C265.282,477.772,264.452,478.602,263.432,478.602z M268.17,477.694c-0.75,0-1.36-0.61-1.36-1.36c0-0.75,0.61-1.36,1.36-1.36
					c0.75,0,1.361,0.61,1.361,1.36C269.53,477.084,268.92,477.694,268.17,477.694z"/>
			</g>
			<path id="XMLID_336_" style="fill:#1D262D;" d="M281.595,473.954c-0.295-0.116-0.806-0.309-1.382-0.237
				c-0.551,0.069-0.844,0.34-0.844,1.007v0.866h2.228v1.717h-2.228v5.455h-1.932v-5.455h-1.34v-1.717h1.34v-0.888
				c0-1.68,0.896-2.783,2.568-2.783c0.642,0,1.157,0.122,1.59,0.308L281.595,473.954z"/>
			<path id="XMLID_334_" style="fill:#1D262D;" d="M286.298,477.286c-0.177-0.03-0.358-0.046-0.526-0.046
				c-0.896,0-1.51,0.548-1.51,1.613v3.908h-1.932v-7.172h1.873v0.785c0.451-0.673,1.14-0.977,2.021-0.977
				c0.414,0,0.848,0.128,1.094,0.337L286.298,477.286z"/>
			<path id="XMLID_331_" style="fill:#1D262D;" d="M293.965,479.164c0,0.222-0.015,0.489-0.037,0.651h-5.085
				c0.207,1.036,0.933,1.488,1.843,1.488c0.622,0,1.295-0.252,1.813-0.688l1.132,1.243c-0.814,0.748-1.85,1.088-3.057,1.088
				c-2.198,0-3.723-1.495-3.723-3.752c0-2.258,1.48-3.797,3.627-3.797C292.544,475.397,293.958,476.929,293.965,479.164z
				 M288.851,478.498h3.175c-0.177-0.918-0.733-1.436-1.562-1.436C289.554,477.063,289.021,477.61,288.851,478.498z"/>
			<path id="XMLID_328_" style="fill:#1D262D;" d="M301.618,479.164c0,0.222-0.015,0.489-0.037,0.651h-5.085
				c0.207,1.036,0.932,1.488,1.843,1.488c0.622,0,1.295-0.252,1.813-0.688l1.132,1.243c-0.814,0.748-1.85,1.088-3.057,1.088
				c-2.198,0-3.723-1.495-3.723-3.752c0-2.258,1.48-3.797,3.627-3.797C300.197,475.397,301.611,476.929,301.618,479.164z
				 M296.504,478.498h3.175c-0.178-0.918-0.733-1.436-1.562-1.436C297.207,477.063,296.674,477.61,296.504,478.498z"/>
			<path id="XMLID_325_" style="fill:#1D262D;" d="M309.964,479.172c0,2.154-1.495,3.775-3.471,3.775
				c-0.962,0-1.643-0.377-2.109-0.933v3.708h-1.924V475.59h1.887v0.792c0.466-0.585,1.155-0.984,2.139-0.984
				C308.469,475.397,309.964,477.018,309.964,479.172z M304.287,479.172c0,1.132,0.747,1.976,1.843,1.976
				c1.14,0,1.85-0.881,1.85-1.976c0-1.095-0.71-1.976-1.85-1.976C305.035,477.196,304.287,478.039,304.287,479.172z"/>
			<path id="XMLID_322_" style="fill:#1D262D;" d="M313.068,473.243c0,0.696-0.54,1.229-1.236,1.229
				c-0.696,0-1.229-0.533-1.229-1.229c0-0.696,0.533-1.243,1.229-1.243C312.527,472,313.068,472.548,313.068,473.243z
				 M312.809,482.762h-1.932v-7.172h1.932V482.762z"/>
			<path id="XMLID_320_" style="fill:#1D262D;" d="M316.032,478.143l2.702-2.554h2.368l-3.479,3.375l3.501,3.797h-2.376
				l-2.716-2.901v2.901H314.1v-10.658h1.932V478.143z"/>
		</g>
		<g>
			<path style="fill:#1D262D;" d="M184.412,482.697v-1.055c-0.527,0.718-1.391,1.23-2.387,1.23c-1.846,0-3.149-1.406-3.149-3.706
				c0-2.256,1.289-3.721,3.149-3.721c0.952,0,1.816,0.469,2.387,1.245v-3.765h1.099v9.77H184.412z M184.412,480.778v-3.208
				c-0.395-0.615-1.245-1.143-2.124-1.143c-1.421,0-2.27,1.172-2.27,2.739c0,1.567,0.85,2.724,2.27,2.724
				C183.168,481.891,184.017,481.393,184.412,480.778z"/>
			<path style="fill:#1D262D;" d="M186.932,479.152c0-2.051,1.465-3.706,3.486-3.706c2.139,0,3.398,1.67,3.398,3.794v0.279h-5.727
				c0.088,1.333,1.025,2.446,2.549,2.446c0.805,0,1.626-0.322,2.182-0.893l0.527,0.718c-0.703,0.703-1.655,1.084-2.812,1.084
				C188.44,482.872,186.932,481.364,186.932,479.152z M190.403,476.354c-1.509,0-2.256,1.274-2.314,2.358h4.643
				C192.718,477.658,192.015,476.354,190.403,476.354z"/>
			<path style="fill:#1D262D;" d="M194.607,481.759l0.571-0.791c0.469,0.542,1.362,1.011,2.329,1.011c1.084,0,1.67-0.513,1.67-1.216
				c0-1.714-4.38-0.659-4.38-3.281c0-1.098,0.952-2.036,2.636-2.036c1.201,0,2.051,0.454,2.622,1.025l-0.513,0.762
				c-0.424-0.513-1.201-0.894-2.109-0.894c-0.967,0-1.567,0.483-1.567,1.113c0,1.553,4.38,0.527,4.38,3.281
				c0,1.187-0.952,2.139-2.783,2.139C196.306,482.872,195.325,482.521,194.607,481.759z"/>
			<path style="fill:#1D262D;" d="M201.477,473.879c0-0.41,0.337-0.747,0.732-0.747c0.41,0,0.747,0.337,0.747,0.747
				c0,0.41-0.337,0.732-0.747,0.732C201.814,474.611,201.477,474.289,201.477,473.879z M201.667,482.697v-7.075h1.099v7.075H201.667
				z"/>
			<path style="fill:#1D262D;" d="M204.582,484.513l0.556-0.82c0.586,0.703,1.289,0.967,2.3,0.967c1.172,0,2.27-0.571,2.27-2.124
				v-1.011c-0.513,0.718-1.377,1.26-2.373,1.26c-1.845,0-3.149-1.377-3.149-3.662c0-2.27,1.289-3.676,3.149-3.676
				c0.952,0,1.802,0.469,2.373,1.245v-1.069h1.098v6.87c0,2.344-1.641,3.076-3.369,3.076
				C206.237,485.568,205.417,485.333,204.582,484.513z M209.709,480.661v-3.091c-0.381-0.615-1.23-1.143-2.109-1.143
				c-1.421,0-2.27,1.128-2.27,2.695c0,1.553,0.849,2.695,2.27,2.695C208.478,481.818,209.328,481.276,209.709,480.661z"/>
			<path style="fill:#1D262D;" d="M217.413,482.697v-4.629c0-1.245-0.63-1.641-1.582-1.641c-0.865,0-1.685,0.527-2.095,1.099v5.17
				h-1.099v-7.075h1.099v1.025c0.498-0.586,1.464-1.201,2.519-1.201c1.48,0,2.256,0.747,2.256,2.285v4.966H217.413z"/>
			<path style="fill:#1D262D;" d="M219.932,479.152c0-2.051,1.465-3.706,3.486-3.706c2.139,0,3.398,1.67,3.398,3.794v0.279h-5.727
				c0.088,1.333,1.025,2.446,2.549,2.446c0.806,0,1.626-0.322,2.183-0.893l0.527,0.718c-0.703,0.703-1.655,1.084-2.812,1.084
				C221.441,482.872,219.932,481.364,219.932,479.152z M223.404,476.354c-1.509,0-2.256,1.274-2.314,2.358h4.643
				C225.718,477.658,225.015,476.354,223.404,476.354z"/>
			<path style="fill:#1D262D;" d="M233.35,482.697v-1.055c-0.527,0.718-1.392,1.23-2.388,1.23c-1.846,0-3.149-1.406-3.149-3.706
				c0-2.256,1.289-3.721,3.149-3.721c0.952,0,1.817,0.469,2.388,1.245v-3.765h1.098v9.77H233.35z M233.35,480.778v-3.208
				c-0.396-0.615-1.245-1.143-2.124-1.143c-1.421,0-2.27,1.172-2.27,2.739c0,1.567,0.849,2.724,2.27,2.724
				C232.105,481.891,232.954,481.393,233.35,480.778z"/>
			<path style="fill:#1D262D;" d="M239.692,482.697v-9.77h1.098v3.765c0.572-0.776,1.421-1.245,2.388-1.245
				c1.845,0,3.149,1.465,3.149,3.721c0,2.299-1.304,3.706-3.149,3.706c-0.996,0-1.86-0.513-2.388-1.23v1.055H239.692z
				 M242.9,481.891c1.436,0,2.285-1.157,2.285-2.724c0-1.567-0.85-2.739-2.285-2.739c-0.864,0-1.728,0.527-2.109,1.143v3.208
				C241.171,481.393,242.036,481.891,242.9,481.891z"/>
			<path style="fill:#1D262D;" d="M247.528,484.469c0.161,0.073,0.425,0.117,0.601,0.117c0.483,0,0.805-0.161,1.055-0.747
				l0.469-1.069l-2.959-7.148h1.187l2.358,5.801l2.344-5.801h1.201l-3.545,8.51c-0.425,1.025-1.143,1.421-2.08,1.435
				c-0.234,0-0.601-0.044-0.805-0.103L247.528,484.469z"/>
		</g>
	</g>
</g>
</svg>
